IKResults
version=1
nRows=6
nColumns=63
inDegrees=yes

Units are S.I. units (second, meters, Newtons, ...)
If the header above contains a line with 'inDegrees', this indicates whether rotational values are in degrees (yes) or radians (no).

endheader
time	pelvis_tilt	pelvis_list	pelvis_rotation	pelvis_tx	pelvis_ty	pelvis_tz	hip_flexion_r	hip_adduction_r	hip_rotation_r	knee_angle_r	knee_angle_r_beta	ankle_angle_r	subtalar_angle_r	mtp_angle_r	hip_flexion_l	hip_adduction_l	hip_rotation_l	knee_angle_l	knee_angle_l_beta	ankle_angle_l	subtalar_angle_l	mtp_angle_l	L5_S1_Flex_Ext	L5_S1_Lat_Bending	L5_S1_axial_rotation	L4_L5_Flex_Ext	L4_L5_Lat_Bending	L4_L5_axial_rotation	L3_L4_Flex_Ext	L3_L4_Lat_Bending	L3_L4_axial_rotation	L2_L3_Flex_Ext	L2_L3_Lat_Bending	L2_L3_axial_rotation	L1_L2_Flex_Ext	L1_L2_Lat_Bending	L1_L2_axial_rotation	L1_T12_Flex_Ext	L1_T12_Lat_Bending	L1_T12_axial_rotation	Abs_r3	Abs_r2	Abs_r1	Abs_t1	Abs_t2	neck_flexion	neck_bending	neck_rotation	arm_flex_r	arm_add_r	arm_rot_r	elbow_flex_r	pro_sup_r	wrist_flex_r	wrist_dev_r	arm_flex_l	arm_add_l	arm_rot_l	elbow_flex_l	pro_sup_l	wrist_flex_l	wrist_dev_l
      2.03333333	    -29.38633995	     -1.90066015	     -3.88948294	     -0.58574306	      0.93983503	     -0.27324864	     34.75547202	      1.19024280	      5.39227417	     32.47993316	      0.56688177	      7.90225215	    -10.89949401	      0.00000000	     29.95017891	     -7.70334192	     -8.71295279	     27.88722743	      0.48672394	      8.63132415	    -12.80222937	      0.00000000	      4.72921769	      0.45461177	     -0.71259226	      8.78263017	      0.60463366	     -0.75712928	      7.76963174	      1.10534306	     -0.75712928	      5.40502290	      1.10534306	     -0.62351823	      4.39155155	      0.92704432	     -0.57898121	      2.70227499	      0.70419363	     -0.53444419	     33.78032903	      5.14265928	     -3.96322437	      0.00000000	      0.00000000	     -1.74398984	     -1.75363171	     -0.96914627	    -40.80438177	    -20.13445514	      3.34912472	     58.03563931	     89.99559364	      0.00000000	      0.00000000	    -20.20798192	    -15.35376788	     -2.57397042	     93.88932082	     89.99559364	      0.00000000	      0.00000000
      2.06666667	    -29.60827751	     -0.55458801	     -2.56396122	     -0.58451031	      0.93848327	     -0.26767087	     32.37142783	     -0.29376055	      5.02545980	     28.22910269	      0.49269079	      7.34175164	    -11.52806047	      0.00000000	     32.61411657	     -6.57598793	     -7.72619263	     31.64459200	      0.55230232	      8.31277911	    -13.93651226	      0.00000000	      4.83530910	      0.18633954	     -0.61903717	      8.97965254	      0.24783158	     -0.65772700	      7.94392933	      0.45306595	     -0.65772700	      5.52627478	      0.45306595	     -0.54165753	      4.49006803	      0.37998358	     -0.50296770	      2.76289562	      0.28863994	     -0.46427788	     34.53812940	      2.10791012	     -3.44289905	      0.00000000	      0.00000000	     -1.38639470	     -0.23181385	     -2.97873074	    -38.38866870	    -18.73356186	      4.48904808	     60.77457101	     89.99559364	      0.00000000	      0.00000000	    -23.95402496	    -16.59927420	     -2.70932773	     93.49879851	     89.99559364	      0.00000000	      0.00000000
      2.10000000	    -30.28540072	      0.74485158	     -1.00869292	     -0.58512644	      0.93591749	     -0.26288519	     31.02258965	     -1.84045629	      4.39938466	     24.96693710	      0.43575526	      7.34055539	    -11.91911682	      0.00000000	     36.40656158	     -5.32395320	     -6.60539970	     36.27078296	      0.63304458	      8.05598225	    -15.44324070	      0.00000000	      4.98786415	     -0.08526068	     -0.52311438	      9.26296252	     -0.11339670	     -0.55580902	      8.19456202	     -0.20730282	     -0.55580902	      5.70062994	     -0.20730282	     -0.45772508	      4.63173065	     -0.17386358	     -0.42503043	      2.85006558	     -0.13206879	     -0.39233578	     35.62781485	     -0.96448586	     -2.90940522	      0.00000000	      0.00000000	     -0.88003305	      1.32313128	     -4.80930092	    -35.71797817	    -17.17118369	      5.22559261	     64.30603010	     89.99559364	      0.00000000	      0.00000000	    -28.28532789	    -17.80164571	     -2.99634935	     92.21688507	     89.99559364	      0.00000000	      0.00000000
      2.13333333	    -31.07720979	      1.72833980	      0.57739092	     -0.58767092	      0.93288660	     -0.25900237	     30.44585662	     -3.13599811	      3.64004411	     22.81486500	      0.39819451	      7.81665727	    -12.15490592	      0.00000000	     40.85735280	     -4.31254933	     -5.69210816	     41.58071121	      0.72572032	      8.00015904	    -16.64824751	      0.00000000	      5.11871461	     -0.32688306	     -0.40126941	      9.50596490	     -0.43475448	     -0.42634875	      8.40953623	     -0.79478348	     -0.42634875	      5.85017893	     -0.79478348	     -0.35111073	      4.75323839	     -0.66657995	     -0.32603139	      2.92483353	     -0.50634187	     -0.30095206	     36.56246660	     -3.69776660	     -2.23174007	      0.00000000	      0.00000000	     -0.21847421	      2.82136630	     -6.77530996	    -32.82397726	    -15.48012805	      5.26445491	     68.33360145	     89.99559364	      0.00000000	      0.00000000	    -32.60108074	    -18.88360024	     -3.27210112	     89.80990959	     89.99559364	      0.00000000	      0.00000000
      2.16666667	    -31.88320463	      2.26302361	      2.01502484	     -0.59146570	      0.92995738	     -0.25634685	     30.41271633	     -4.02241953	      2.92396530	     21.50443416	      0.37532318	      8.50229409	    -12.33504480	      0.00000000	     45.57742829	     -3.63972273	     -4.86121842	     47.09151513	      0.82190199	      8.01991076	    -17.58878525	      0.00000000	      5.22744517	     -0.51056785	     -0.24838719	      9.70788842	     -0.67905523	     -0.26391139	      8.58816967	     -1.24139466	     -0.26391139	      5.97444708	     -1.24139466	     -0.21733879	      4.85420558	     -1.04114995	     -0.20181459	      2.98696217	     -0.79086959	     -0.18629039	     37.33911810	     -5.77564558	     -1.38145503	      0.00000000	      0.00000000	      0.44794175	      4.04271747	     -8.67613278	    -29.87822942	    -13.91867526	      4.70163354	     72.70348336	     89.99559364	      0.00000000	      0.00000000	    -36.58077547	    -19.61502935	     -3.48775624	     86.30192746	     89.99559364	      0.00000000	      0.00000000
      2.20000000	    -32.48828931	      2.41279191	      3.13161299	     -0.59581650	      0.92771043	     -0.25460920	     30.57819688	     -4.45946643	      2.46800565	     20.75837619	      0.36230201	      9.16391259	    -12.64393817	      0.00000000	     49.94841094	     -3.32519023	     -4.14740096	     52.17000914	      0.91053843	      8.21540424	    -18.18113061	      0.00000000	      5.28932019	     -0.64016411	     -0.04149153	      9.82279652	     -0.85141826	     -0.04408475	      8.68982413	     -1.55649501	     -0.04408475	      6.04516404	     -1.55649501	     -0.03630509	      4.91166273	     -1.30542265	     -0.03371187	      3.02231755	     -0.99161420	     -0.03111865	     37.78108516	     -7.24166441	     -0.23076344	      0.00000000	      0.00000000	      1.06594230	      4.96710401	    -10.76673211	    -26.91126200	    -12.50400612	      3.68780067	     76.89988111	     89.99559364	      0.00000000	      0.00000000	    -40.07039528	    -20.16343411	     -3.69770247	     82.11037392	     89.99559364	      0.00000000	      0.00000000
